<mxfile host="app.diagrams.net" modified="2023-01-11T06:31:51.378Z" agent="5.0 (Windows NT 10.0; Win64; x64) AppleWebKit/537.36 (KHTML, like Gecko) Chrome/108.0.0.0 Safari/537.36" version="20.8.3" etag="lv97UujzYtTmCGXc5HYI" type="github">
  <diagram id="5ZKwCs_zF4DmYv-w3ptT" name="Page-1">
    <mxGraphModel dx="1434" dy="792" grid="1" gridSize="10" guides="1" tooltips="1" connect="1" arrows="1" fold="1" page="1" pageScale="1" pageWidth="850" pageHeight="1100" math="0" shadow="0">
      <root>
        <mxCell id="0" />
        <mxCell id="1" parent="0" />
        <mxCell id="BpX-O70kSTCtb1AJSuhp-1" value="&lt;b&gt;&lt;font style=&quot;font-size: 17px;&quot;&gt;GCP CI / CD Work Flow&lt;/font&gt;&lt;/b&gt;" style="text;html=1;strokeColor=none;fillColor=none;align=center;verticalAlign=middle;whiteSpace=wrap;rounded=0;" vertex="1" parent="1">
          <mxGeometry x="10" y="80" width="210" height="30" as="geometry" />
        </mxCell>
        <mxCell id="BpX-O70kSTCtb1AJSuhp-4" value="" style="edgeStyle=orthogonalEdgeStyle;rounded=0;orthogonalLoop=1;jettySize=auto;html=1;fontSize=17;" edge="1" parent="1" source="BpX-O70kSTCtb1AJSuhp-2" target="BpX-O70kSTCtb1AJSuhp-3">
          <mxGeometry relative="1" as="geometry" />
        </mxCell>
        <mxCell id="BpX-O70kSTCtb1AJSuhp-2" value="Create&lt;br&gt;Dockerfile" style="rounded=0;whiteSpace=wrap;html=1;fontSize=17;" vertex="1" parent="1">
          <mxGeometry x="40" y="120" width="120" height="60" as="geometry" />
        </mxCell>
        <mxCell id="BpX-O70kSTCtb1AJSuhp-6" value="" style="edgeStyle=orthogonalEdgeStyle;rounded=0;orthogonalLoop=1;jettySize=auto;html=1;fontSize=17;" edge="1" parent="1" source="BpX-O70kSTCtb1AJSuhp-3" target="BpX-O70kSTCtb1AJSuhp-5">
          <mxGeometry relative="1" as="geometry" />
        </mxCell>
        <mxCell id="BpX-O70kSTCtb1AJSuhp-3" value="Cloud &lt;br&gt;Build" style="rounded=0;whiteSpace=wrap;html=1;fontSize=17;" vertex="1" parent="1">
          <mxGeometry x="40" y="240" width="120" height="60" as="geometry" />
        </mxCell>
        <mxCell id="BpX-O70kSTCtb1AJSuhp-8" value="" style="edgeStyle=orthogonalEdgeStyle;rounded=0;orthogonalLoop=1;jettySize=auto;html=1;fontSize=17;" edge="1" parent="1" source="BpX-O70kSTCtb1AJSuhp-5" target="BpX-O70kSTCtb1AJSuhp-7">
          <mxGeometry relative="1" as="geometry" />
        </mxCell>
        <mxCell id="BpX-O70kSTCtb1AJSuhp-5" value="Registry Container" style="rounded=0;whiteSpace=wrap;html=1;fontSize=17;" vertex="1" parent="1">
          <mxGeometry x="40" y="360" width="120" height="60" as="geometry" />
        </mxCell>
        <mxCell id="BpX-O70kSTCtb1AJSuhp-7" value="Cloud &lt;br&gt;RUN" style="rounded=0;whiteSpace=wrap;html=1;fontSize=17;" vertex="1" parent="1">
          <mxGeometry x="40" y="480" width="120" height="60" as="geometry" />
        </mxCell>
      </root>
    </mxGraphModel>
  </diagram>
</mxfile>
